<mxfile host="app.diagrams.net" agent="Mozilla/5.0 (Windows NT 10.0; Win64; x64) AppleWebKit/537.36 (KHTML, like Gecko) Chrome/128.0.0.0 Safari/537.36" version="24.7.12">
  <diagram name="1 oldal" id="uSFsyTVY-DGPZTVXkHdG">
    <mxGraphModel dx="1669" dy="1127" grid="0" gridSize="10" guides="1" tooltips="1" connect="1" arrows="1" fold="1" page="0" pageScale="1" pageWidth="827" pageHeight="1169" math="0" shadow="0">
      <root>
        <mxCell id="0" />
        <mxCell id="1" parent="0" />
        <mxCell id="vUZU81bNw2DUVFO8OLQp-4" value="" style="edgeStyle=none;curved=1;rounded=0;orthogonalLoop=1;jettySize=auto;html=1;fontSize=12;startSize=8;endSize=8;" edge="1" parent="1" source="vUZU81bNw2DUVFO8OLQp-1" target="vUZU81bNw2DUVFO8OLQp-3">
          <mxGeometry relative="1" as="geometry" />
        </mxCell>
        <mxCell id="vUZU81bNw2DUVFO8OLQp-1" value="START" style="ellipse;whiteSpace=wrap;html=1;" vertex="1" parent="1">
          <mxGeometry x="-646" y="-143" width="120" height="80" as="geometry" />
        </mxCell>
        <mxCell id="vUZU81bNw2DUVFO8OLQp-6" value="" style="edgeStyle=none;curved=1;rounded=0;orthogonalLoop=1;jettySize=auto;html=1;fontSize=12;startSize=8;endSize=8;" edge="1" parent="1" source="vUZU81bNw2DUVFO8OLQp-3" target="vUZU81bNw2DUVFO8OLQp-5">
          <mxGeometry relative="1" as="geometry" />
        </mxCell>
        <mxCell id="vUZU81bNw2DUVFO8OLQp-3" value="BE: t[],Ttul()" style="shape=parallelogram;perimeter=parallelogramPerimeter;whiteSpace=wrap;html=1;fixedSize=1;" vertex="1" parent="1">
          <mxGeometry x="-447" y="-133" width="120" height="60" as="geometry" />
        </mxCell>
        <mxCell id="vUZU81bNw2DUVFO8OLQp-21" style="edgeStyle=none;curved=1;rounded=0;orthogonalLoop=1;jettySize=auto;html=1;entryX=0.5;entryY=0;entryDx=0;entryDy=0;fontSize=12;startSize=8;endSize=8;" edge="1" parent="1" source="vUZU81bNw2DUVFO8OLQp-5" target="vUZU81bNw2DUVFO8OLQp-7">
          <mxGeometry relative="1" as="geometry" />
        </mxCell>
        <mxCell id="vUZU81bNw2DUVFO8OLQp-5" value="i = 0" style="whiteSpace=wrap;html=1;aspect=fixed;" vertex="1" parent="1">
          <mxGeometry x="-219" y="-143" width="80" height="80" as="geometry" />
        </mxCell>
        <mxCell id="vUZU81bNw2DUVFO8OLQp-29" value="" style="edgeStyle=none;curved=1;rounded=0;orthogonalLoop=1;jettySize=auto;html=1;fontSize=12;startSize=8;endSize=8;" edge="1" parent="1" source="vUZU81bNw2DUVFO8OLQp-7" target="vUZU81bNw2DUVFO8OLQp-28">
          <mxGeometry relative="1" as="geometry" />
        </mxCell>
        <mxCell id="vUZU81bNw2DUVFO8OLQp-7" value="i &amp;lt; t[]hossz" style="rhombus;whiteSpace=wrap;html=1;" vertex="1" parent="1">
          <mxGeometry x="-229" y="-39" width="110" height="112" as="geometry" />
        </mxCell>
        <mxCell id="vUZU81bNw2DUVFO8OLQp-8" value="END" style="ellipse;whiteSpace=wrap;html=1;" vertex="1" parent="1">
          <mxGeometry x="62" y="-28" width="120" height="80" as="geometry" />
        </mxCell>
        <mxCell id="vUZU81bNw2DUVFO8OLQp-11" value="" style="edgeStyle=none;curved=1;rounded=0;orthogonalLoop=1;jettySize=auto;html=1;fontSize=12;startSize=8;endSize=8;" edge="1" parent="1" source="vUZU81bNw2DUVFO8OLQp-9" target="vUZU81bNw2DUVFO8OLQp-10">
          <mxGeometry relative="1" as="geometry" />
        </mxCell>
        <mxCell id="vUZU81bNw2DUVFO8OLQp-14" value="" style="edgeStyle=none;curved=1;rounded=0;orthogonalLoop=1;jettySize=auto;html=1;fontSize=12;startSize=8;endSize=8;" edge="1" parent="1" source="vUZU81bNw2DUVFO8OLQp-9" target="vUZU81bNw2DUVFO8OLQp-13">
          <mxGeometry relative="1" as="geometry" />
        </mxCell>
        <mxCell id="vUZU81bNw2DUVFO8OLQp-9" value="t[i] != Ttul()" style="rhombus;whiteSpace=wrap;html=1;" vertex="1" parent="1">
          <mxGeometry x="-234" y="103" width="116" height="110" as="geometry" />
        </mxCell>
        <mxCell id="vUZU81bNw2DUVFO8OLQp-12" value="" style="edgeStyle=none;curved=1;rounded=0;orthogonalLoop=1;jettySize=auto;html=1;fontSize=12;startSize=8;endSize=8;" edge="1" parent="1" source="vUZU81bNw2DUVFO8OLQp-10" target="vUZU81bNw2DUVFO8OLQp-8">
          <mxGeometry relative="1" as="geometry" />
        </mxCell>
        <mxCell id="vUZU81bNw2DUVFO8OLQp-10" value="Ki: i" style="rounded=0;whiteSpace=wrap;html=1;" vertex="1" parent="1">
          <mxGeometry x="-50" y="128" width="120" height="60" as="geometry" />
        </mxCell>
        <mxCell id="vUZU81bNw2DUVFO8OLQp-32" style="edgeStyle=none;curved=1;rounded=0;orthogonalLoop=1;jettySize=auto;html=1;fontSize=12;startSize=8;endSize=8;" edge="1" parent="1" source="vUZU81bNw2DUVFO8OLQp-13" target="vUZU81bNw2DUVFO8OLQp-7">
          <mxGeometry relative="1" as="geometry" />
        </mxCell>
        <mxCell id="vUZU81bNw2DUVFO8OLQp-13" value="i++;" style="rounded=0;whiteSpace=wrap;html=1;" vertex="1" parent="1">
          <mxGeometry x="-420" y="128" width="120" height="60" as="geometry" />
        </mxCell>
        <mxCell id="vUZU81bNw2DUVFO8OLQp-15" value="I" style="text;html=1;align=center;verticalAlign=middle;whiteSpace=wrap;rounded=0;fontSize=16;" vertex="1" parent="1">
          <mxGeometry x="-229" y="206" width="60" height="30" as="geometry" />
        </mxCell>
        <mxCell id="vUZU81bNw2DUVFO8OLQp-16" value="H" style="text;html=1;align=center;verticalAlign=middle;whiteSpace=wrap;rounded=0;fontSize=16;" vertex="1" parent="1">
          <mxGeometry x="-123" y="116" width="60" height="30" as="geometry" />
        </mxCell>
        <mxCell id="vUZU81bNw2DUVFO8OLQp-17" value="I" style="text;html=1;align=center;verticalAlign=middle;whiteSpace=wrap;rounded=0;fontSize=16;" vertex="1" parent="1">
          <mxGeometry x="-188" y="73" width="60" height="30" as="geometry" />
        </mxCell>
        <mxCell id="vUZU81bNw2DUVFO8OLQp-22" style="edgeStyle=none;curved=1;rounded=0;orthogonalLoop=1;jettySize=auto;html=1;entryX=0.526;entryY=0.064;entryDx=0;entryDy=0;entryPerimeter=0;fontSize=12;startSize=8;endSize=8;" edge="1" parent="1" source="vUZU81bNw2DUVFO8OLQp-7" target="vUZU81bNw2DUVFO8OLQp-9">
          <mxGeometry relative="1" as="geometry" />
        </mxCell>
        <mxCell id="vUZU81bNw2DUVFO8OLQp-30" value="" style="edgeStyle=none;curved=1;rounded=0;orthogonalLoop=1;jettySize=auto;html=1;fontSize=12;startSize=8;endSize=8;" edge="1" parent="1" source="vUZU81bNw2DUVFO8OLQp-28" target="vUZU81bNw2DUVFO8OLQp-8">
          <mxGeometry relative="1" as="geometry" />
        </mxCell>
        <mxCell id="vUZU81bNw2DUVFO8OLQp-28" value="Ki: i-1" style="rounded=0;whiteSpace=wrap;html=1;" vertex="1" parent="1">
          <mxGeometry x="-88" y="-13" width="120" height="60" as="geometry" />
        </mxCell>
        <mxCell id="vUZU81bNw2DUVFO8OLQp-31" value="H" style="text;html=1;align=center;verticalAlign=middle;whiteSpace=wrap;rounded=0;fontSize=16;" vertex="1" parent="1">
          <mxGeometry x="-139" y="-28" width="60" height="30" as="geometry" />
        </mxCell>
      </root>
    </mxGraphModel>
  </diagram>
</mxfile>
